<svg xmlns="http://www.w3.org/2000/svg" width="107.125" height="93.812" viewBox="0 0 107.125 93.812">
  <metadata><?xpacket begin="﻿" id="W5M0MpCehiHzreSzNTczkc9d"?>
<x:xmpmeta xmlns:x="adobe:ns:meta/" x:xmptk="Adobe XMP Core 5.6-c138 79.159824, 2016/09/14-01:09:01        ">
   <rdf:RDF xmlns:rdf="http://www.w3.org/1999/02/22-rdf-syntax-ns#">
      <rdf:Description rdf:about=""/>
   </rdf:RDF>
</x:xmpmeta>
                                                                                                    
                                                                                                    
                                                                                                    
                                                                                                    
                                                                                                    
                                                                                                    
                                                                                                    
                                                                                                    
                                                                                                    
                                                                                                    
                                                                                                    
                                                                                                    
                                                                                                    
                                                                                                    
                                                                                                    
                                                                                                    
                                                                                                    
                                                                                                    
                                                                                                    
                                                                                                    
                           
<?xpacket end="w"?></metadata>
<defs>
    <style>
      .cls-1 {
        fill: #fefefe;
        fill-rule: evenodd;
      }
    </style>
  </defs>
  <path id="Shape" class="cls-1" d="M34.112,90.77a2.746,2.746,0,0,0-2.55,2.866c0,5.6-4.058,10.031-9.274,10.031-5.1,0-9.274-4.429-9.274-10.031V31.37c0-5.6,4.173-10.03,9.274-10.03,5.217,0,9.274,4.429,9.274,10.03a2.746,2.746,0,0,0,2.55,2.866,2.746,2.746,0,0,0,2.55-2.866c0-8.728-6.376-15.762-14.375-15.762-7.883,0-14.375,7.034-14.375,15.762V93.635c0,8.728,6.492,15.762,14.375,15.762,8,0,14.375-7.034,14.375-15.762A2.746,2.746,0,0,0,34.112,90.77ZM56.834,15.608c-7.3,0-13.8,7.295-13.8,16.413v73.208a2.568,2.568,0,1,0,5.1,0V73.835H65.528v31.394a2.568,2.568,0,1,0,5.1,0V32.021C70.629,22.9,64.137,15.608,56.834,15.608Zm8.695,41.945H48.139V32.021c0-6.122,3.826-10.682,8.695-10.682s8.695,4.559,8.695,10.682V57.552Zm0,10.551H48.139v-4.82H65.528V68.1ZM97.061,43.614c3.942-2.605,5.565-6.643,5.565-11.463,0-8.337-5.913-15.241-12.984-15.241H81.3a2.873,2.873,0,0,0-2.55,3v85.323a2.739,2.739,0,0,0,2.435,2.866H91.5c12.983,0,23.533-14.46,23.533-32.957C115.03,60.158,107.958,48.043,97.061,43.614ZM83.845,41.791V22.642h5.8c4.289,0,7.883,4.3,7.883,9.509s-3.478,9.639-7.883,9.639h-5.8ZM91.5,102.363H83.845V47.522H91.5c10.2,0,18.432,12.245,18.432,27.616S101.814,102.363,91.5,102.363Z" transform="translate(-7.906 -15.594)"/>
</svg>
